<mxfile host="Electron" agent="Mozilla/5.0 (Windows NT 10.0; Win64; x64) AppleWebKit/537.36 (KHTML, like Gecko) draw.io/24.7.17 Chrome/128.0.6613.36 Electron/32.0.1 Safari/537.36" version="24.7.17">
  <diagram name="Page-1" id="WxWPirhL_ibwgt774Ln8">
    <mxGraphModel dx="818" dy="572" grid="1" gridSize="10" guides="1" tooltips="1" connect="1" arrows="1" fold="1" page="1" pageScale="1" pageWidth="850" pageHeight="1100" math="0" shadow="0">
      <root>
        <mxCell id="0" />
        <mxCell id="1" parent="0" />
        <mxCell id="xeIMTpFjhwIsgQmxVqon-14" value="" style="group" parent="1" vertex="1" connectable="0">
          <mxGeometry x="35" y="40" width="120" height="80" as="geometry" />
        </mxCell>
        <mxCell id="xeIMTpFjhwIsgQmxVqon-15" value="" style="ellipse;whiteSpace=wrap;html=1;" parent="xeIMTpFjhwIsgQmxVqon-14" vertex="1">
          <mxGeometry width="120" height="80" as="geometry" />
        </mxCell>
        <mxCell id="xeIMTpFjhwIsgQmxVqon-16" value="Mulai" style="text;html=1;align=center;verticalAlign=middle;whiteSpace=wrap;rounded=0;" parent="xeIMTpFjhwIsgQmxVqon-14" vertex="1">
          <mxGeometry x="10" y="10" width="100" height="60" as="geometry" />
        </mxCell>
        <mxCell id="xeIMTpFjhwIsgQmxVqon-17" value="" style="group" parent="1" vertex="1" connectable="0">
          <mxGeometry x="35" y="160" width="120" height="60" as="geometry" />
        </mxCell>
        <mxCell id="xeIMTpFjhwIsgQmxVqon-18" value="" style="shape=parallelogram;perimeter=parallelogramPerimeter;whiteSpace=wrap;html=1;fixedSize=1;" parent="xeIMTpFjhwIsgQmxVqon-17" vertex="1">
          <mxGeometry width="120" height="60" as="geometry" />
        </mxCell>
        <mxCell id="xeIMTpFjhwIsgQmxVqon-19" value="Masukan angka ke i" style="text;html=1;align=center;verticalAlign=middle;whiteSpace=wrap;rounded=0;" parent="xeIMTpFjhwIsgQmxVqon-17" vertex="1">
          <mxGeometry x="20" width="80" height="60" as="geometry" />
        </mxCell>
        <mxCell id="xeIMTpFjhwIsgQmxVqon-20" value="" style="group" parent="1" vertex="1" connectable="0">
          <mxGeometry x="35" y="260" width="120" height="60" as="geometry" />
        </mxCell>
        <mxCell id="xeIMTpFjhwIsgQmxVqon-21" value="" style="shape=parallelogram;perimeter=parallelogramPerimeter;whiteSpace=wrap;html=1;fixedSize=1;" parent="xeIMTpFjhwIsgQmxVqon-20" vertex="1">
          <mxGeometry width="120" height="60" as="geometry" />
        </mxCell>
        <mxCell id="xeIMTpFjhwIsgQmxVqon-22" value="Masukan satuan ke j" style="text;html=1;align=center;verticalAlign=middle;whiteSpace=wrap;rounded=0;" parent="xeIMTpFjhwIsgQmxVqon-20" vertex="1">
          <mxGeometry x="20" width="80" height="60" as="geometry" />
        </mxCell>
        <mxCell id="xeIMTpFjhwIsgQmxVqon-23" style="edgeStyle=orthogonalEdgeStyle;rounded=0;orthogonalLoop=1;jettySize=auto;html=1;entryX=0.5;entryY=0;entryDx=0;entryDy=0;" parent="1" source="xeIMTpFjhwIsgQmxVqon-15" target="xeIMTpFjhwIsgQmxVqon-19" edge="1">
          <mxGeometry relative="1" as="geometry" />
        </mxCell>
        <mxCell id="xeIMTpFjhwIsgQmxVqon-24" style="edgeStyle=orthogonalEdgeStyle;rounded=0;orthogonalLoop=1;jettySize=auto;html=1;entryX=0.5;entryY=0;entryDx=0;entryDy=0;" parent="1" source="xeIMTpFjhwIsgQmxVqon-19" target="xeIMTpFjhwIsgQmxVqon-22" edge="1">
          <mxGeometry relative="1" as="geometry" />
        </mxCell>
        <mxCell id="xeIMTpFjhwIsgQmxVqon-25" value="" style="group" parent="1" vertex="1" connectable="0">
          <mxGeometry x="30" y="350" width="130" height="140" as="geometry" />
        </mxCell>
        <mxCell id="xeIMTpFjhwIsgQmxVqon-34" style="edgeStyle=orthogonalEdgeStyle;rounded=0;orthogonalLoop=1;jettySize=auto;html=1;" parent="xeIMTpFjhwIsgQmxVqon-25" source="xeIMTpFjhwIsgQmxVqon-26" edge="1">
          <mxGeometry relative="1" as="geometry">
            <mxPoint x="65" y="-100" as="targetPoint" />
            <Array as="points">
              <mxPoint x="160" y="65" />
              <mxPoint x="160" y="-100" />
            </Array>
          </mxGeometry>
        </mxCell>
        <mxCell id="xeIMTpFjhwIsgQmxVqon-41" style="edgeStyle=orthogonalEdgeStyle;rounded=0;orthogonalLoop=1;jettySize=auto;html=1;" parent="xeIMTpFjhwIsgQmxVqon-25" source="xeIMTpFjhwIsgQmxVqon-26" edge="1">
          <mxGeometry relative="1" as="geometry">
            <mxPoint x="65" y="180" as="targetPoint" />
          </mxGeometry>
        </mxCell>
        <mxCell id="xeIMTpFjhwIsgQmxVqon-26" value="" style="rhombus;whiteSpace=wrap;html=1;" parent="xeIMTpFjhwIsgQmxVqon-25" vertex="1">
          <mxGeometry width="130" height="130" as="geometry" />
        </mxCell>
        <mxCell id="xeIMTpFjhwIsgQmxVqon-27" value="j &amp;lt; 0 atau j &amp;gt; 3 atau j bukan angka&amp;nbsp;" style="text;html=1;align=center;verticalAlign=middle;whiteSpace=wrap;rounded=0;" parent="xeIMTpFjhwIsgQmxVqon-25" vertex="1">
          <mxGeometry x="20" y="25" width="90" height="80" as="geometry" />
        </mxCell>
        <mxCell id="xeIMTpFjhwIsgQmxVqon-40" value="False" style="text;html=1;align=center;verticalAlign=middle;whiteSpace=wrap;rounded=0;" parent="xeIMTpFjhwIsgQmxVqon-25" vertex="1">
          <mxGeometry x="-10" y="110" width="60" height="30" as="geometry" />
        </mxCell>
        <mxCell id="xeIMTpFjhwIsgQmxVqon-29" style="edgeStyle=orthogonalEdgeStyle;rounded=0;orthogonalLoop=1;jettySize=auto;html=1;entryX=0.5;entryY=0;entryDx=0;entryDy=0;" parent="1" source="xeIMTpFjhwIsgQmxVqon-22" target="xeIMTpFjhwIsgQmxVqon-26" edge="1">
          <mxGeometry relative="1" as="geometry" />
        </mxCell>
        <mxCell id="xeIMTpFjhwIsgQmxVqon-30" value="" style="group" parent="1" vertex="1" connectable="0">
          <mxGeometry x="30" y="530" width="130" height="140" as="geometry" />
        </mxCell>
        <mxCell id="xeIMTpFjhwIsgQmxVqon-31" value="" style="rhombus;whiteSpace=wrap;html=1;" parent="xeIMTpFjhwIsgQmxVqon-30" vertex="1">
          <mxGeometry width="130" height="130" as="geometry" />
        </mxCell>
        <mxCell id="xeIMTpFjhwIsgQmxVqon-32" value="j == 1" style="text;html=1;align=center;verticalAlign=middle;whiteSpace=wrap;rounded=0;" parent="xeIMTpFjhwIsgQmxVqon-30" vertex="1">
          <mxGeometry x="20" y="25" width="90" height="80" as="geometry" />
        </mxCell>
        <mxCell id="xeIMTpFjhwIsgQmxVqon-62" value="True" style="text;html=1;align=center;verticalAlign=middle;whiteSpace=wrap;rounded=0;" parent="xeIMTpFjhwIsgQmxVqon-30" vertex="1">
          <mxGeometry y="110" width="60" height="30" as="geometry" />
        </mxCell>
        <mxCell id="xeIMTpFjhwIsgQmxVqon-39" value="True" style="text;html=1;align=center;verticalAlign=middle;whiteSpace=wrap;rounded=0;" parent="1" vertex="1">
          <mxGeometry x="145" y="390" width="60" height="30" as="geometry" />
        </mxCell>
        <mxCell id="xeIMTpFjhwIsgQmxVqon-43" value="" style="group" parent="1" vertex="1" connectable="0">
          <mxGeometry x="35" y="690" width="120" height="60" as="geometry" />
        </mxCell>
        <mxCell id="xeIMTpFjhwIsgQmxVqon-44" value="" style="rounded=0;whiteSpace=wrap;html=1;" parent="xeIMTpFjhwIsgQmxVqon-43" vertex="1">
          <mxGeometry width="120" height="60" as="geometry" />
        </mxCell>
        <mxCell id="xeIMTpFjhwIsgQmxVqon-45" value="c = i" style="text;html=1;align=center;verticalAlign=middle;whiteSpace=wrap;rounded=0;" parent="xeIMTpFjhwIsgQmxVqon-43" vertex="1">
          <mxGeometry x="10" y="10" width="100" height="40" as="geometry" />
        </mxCell>
        <mxCell id="xeIMTpFjhwIsgQmxVqon-48" value="" style="group" parent="1" vertex="1" connectable="0">
          <mxGeometry x="35" y="790" width="120" height="60" as="geometry" />
        </mxCell>
        <mxCell id="xeIMTpFjhwIsgQmxVqon-49" value="" style="rounded=0;whiteSpace=wrap;html=1;" parent="xeIMTpFjhwIsgQmxVqon-48" vertex="1">
          <mxGeometry width="120" height="60" as="geometry" />
        </mxCell>
        <mxCell id="xeIMTpFjhwIsgQmxVqon-50" value="f = (i * 9/5) + 32" style="text;html=1;align=center;verticalAlign=middle;whiteSpace=wrap;rounded=0;" parent="xeIMTpFjhwIsgQmxVqon-48" vertex="1">
          <mxGeometry x="10" y="10" width="100" height="40" as="geometry" />
        </mxCell>
        <mxCell id="xeIMTpFjhwIsgQmxVqon-52" value="" style="group" parent="1" vertex="1" connectable="0">
          <mxGeometry x="35" y="890" width="120" height="60" as="geometry" />
        </mxCell>
        <mxCell id="xeIMTpFjhwIsgQmxVqon-53" value="" style="rounded=0;whiteSpace=wrap;html=1;" parent="xeIMTpFjhwIsgQmxVqon-52" vertex="1">
          <mxGeometry width="120" height="60" as="geometry" />
        </mxCell>
        <mxCell id="xeIMTpFjhwIsgQmxVqon-54" value="r = i * 4/5" style="text;html=1;align=center;verticalAlign=middle;whiteSpace=wrap;rounded=0;" parent="xeIMTpFjhwIsgQmxVqon-52" vertex="1">
          <mxGeometry x="10" y="10" width="100" height="40" as="geometry" />
        </mxCell>
        <mxCell id="xeIMTpFjhwIsgQmxVqon-55" style="edgeStyle=orthogonalEdgeStyle;rounded=0;orthogonalLoop=1;jettySize=auto;html=1;entryX=0.5;entryY=0;entryDx=0;entryDy=0;" parent="1" source="xeIMTpFjhwIsgQmxVqon-31" target="xeIMTpFjhwIsgQmxVqon-44" edge="1">
          <mxGeometry relative="1" as="geometry" />
        </mxCell>
        <mxCell id="xeIMTpFjhwIsgQmxVqon-59" style="edgeStyle=orthogonalEdgeStyle;rounded=0;orthogonalLoop=1;jettySize=auto;html=1;entryX=0.5;entryY=0;entryDx=0;entryDy=0;" parent="1" source="xeIMTpFjhwIsgQmxVqon-44" target="xeIMTpFjhwIsgQmxVqon-49" edge="1">
          <mxGeometry relative="1" as="geometry" />
        </mxCell>
        <mxCell id="xeIMTpFjhwIsgQmxVqon-60" style="edgeStyle=orthogonalEdgeStyle;rounded=0;orthogonalLoop=1;jettySize=auto;html=1;entryX=0.5;entryY=0;entryDx=0;entryDy=0;" parent="1" source="xeIMTpFjhwIsgQmxVqon-49" target="xeIMTpFjhwIsgQmxVqon-53" edge="1">
          <mxGeometry relative="1" as="geometry" />
        </mxCell>
        <mxCell id="xeIMTpFjhwIsgQmxVqon-63" value="False" style="text;html=1;align=center;verticalAlign=middle;whiteSpace=wrap;rounded=0;" parent="1" vertex="1">
          <mxGeometry x="140" y="605" width="60" height="30" as="geometry" />
        </mxCell>
        <mxCell id="xeIMTpFjhwIsgQmxVqon-64" value="" style="group" parent="1" vertex="1" connectable="0">
          <mxGeometry x="185" y="640" width="130" height="140" as="geometry" />
        </mxCell>
        <mxCell id="xeIMTpFjhwIsgQmxVqon-65" value="" style="rhombus;whiteSpace=wrap;html=1;" parent="xeIMTpFjhwIsgQmxVqon-64" vertex="1">
          <mxGeometry width="130" height="130" as="geometry" />
        </mxCell>
        <mxCell id="xeIMTpFjhwIsgQmxVqon-66" value="j == 2" style="text;html=1;align=center;verticalAlign=middle;whiteSpace=wrap;rounded=0;" parent="xeIMTpFjhwIsgQmxVqon-64" vertex="1">
          <mxGeometry x="20" y="25" width="90" height="80" as="geometry" />
        </mxCell>
        <mxCell id="xeIMTpFjhwIsgQmxVqon-67" value="True" style="text;html=1;align=center;verticalAlign=middle;whiteSpace=wrap;rounded=0;" parent="xeIMTpFjhwIsgQmxVqon-64" vertex="1">
          <mxGeometry y="110" width="60" height="30" as="geometry" />
        </mxCell>
        <mxCell id="xeIMTpFjhwIsgQmxVqon-68" value="" style="group" parent="1" vertex="1" connectable="0">
          <mxGeometry x="190" y="800" width="120" height="60" as="geometry" />
        </mxCell>
        <mxCell id="xeIMTpFjhwIsgQmxVqon-69" value="" style="rounded=0;whiteSpace=wrap;html=1;" parent="xeIMTpFjhwIsgQmxVqon-68" vertex="1">
          <mxGeometry width="120" height="60" as="geometry" />
        </mxCell>
        <mxCell id="xeIMTpFjhwIsgQmxVqon-70" value="f = i" style="text;html=1;align=center;verticalAlign=middle;whiteSpace=wrap;rounded=0;" parent="xeIMTpFjhwIsgQmxVqon-68" vertex="1">
          <mxGeometry x="10" y="10" width="100" height="40" as="geometry" />
        </mxCell>
        <mxCell id="xeIMTpFjhwIsgQmxVqon-71" value="" style="group" parent="1" vertex="1" connectable="0">
          <mxGeometry x="190" y="900" width="120" height="60" as="geometry" />
        </mxCell>
        <mxCell id="xeIMTpFjhwIsgQmxVqon-72" value="" style="rounded=0;whiteSpace=wrap;html=1;" parent="xeIMTpFjhwIsgQmxVqon-71" vertex="1">
          <mxGeometry width="120" height="60" as="geometry" />
        </mxCell>
        <mxCell id="xeIMTpFjhwIsgQmxVqon-73" value="c = (i - 32) * 5/9" style="text;html=1;align=center;verticalAlign=middle;whiteSpace=wrap;rounded=0;" parent="xeIMTpFjhwIsgQmxVqon-71" vertex="1">
          <mxGeometry x="10" y="10" width="100" height="40" as="geometry" />
        </mxCell>
        <mxCell id="xeIMTpFjhwIsgQmxVqon-74" value="" style="group" parent="1" vertex="1" connectable="0">
          <mxGeometry x="190" y="1000" width="120" height="60" as="geometry" />
        </mxCell>
        <mxCell id="xeIMTpFjhwIsgQmxVqon-111" style="edgeStyle=orthogonalEdgeStyle;rounded=0;orthogonalLoop=1;jettySize=auto;html=1;" parent="xeIMTpFjhwIsgQmxVqon-74" source="xeIMTpFjhwIsgQmxVqon-75" edge="1">
          <mxGeometry relative="1" as="geometry">
            <mxPoint x="-95" y="130" as="targetPoint" />
            <Array as="points">
              <mxPoint x="60" y="100" />
              <mxPoint x="61" y="140" />
            </Array>
          </mxGeometry>
        </mxCell>
        <mxCell id="xeIMTpFjhwIsgQmxVqon-75" value="" style="rounded=0;whiteSpace=wrap;html=1;" parent="xeIMTpFjhwIsgQmxVqon-74" vertex="1">
          <mxGeometry width="120" height="60" as="geometry" />
        </mxCell>
        <mxCell id="xeIMTpFjhwIsgQmxVqon-76" value="r = (i - 32) * 4/9" style="text;html=1;align=center;verticalAlign=middle;whiteSpace=wrap;rounded=0;" parent="xeIMTpFjhwIsgQmxVqon-74" vertex="1">
          <mxGeometry x="10" y="10" width="100" height="40" as="geometry" />
        </mxCell>
        <mxCell id="xeIMTpFjhwIsgQmxVqon-77" style="edgeStyle=orthogonalEdgeStyle;rounded=0;orthogonalLoop=1;jettySize=auto;html=1;entryX=0.5;entryY=0;entryDx=0;entryDy=0;" parent="1" source="xeIMTpFjhwIsgQmxVqon-65" target="xeIMTpFjhwIsgQmxVqon-69" edge="1">
          <mxGeometry relative="1" as="geometry" />
        </mxCell>
        <mxCell id="xeIMTpFjhwIsgQmxVqon-78" style="edgeStyle=orthogonalEdgeStyle;rounded=0;orthogonalLoop=1;jettySize=auto;html=1;entryX=0.5;entryY=0;entryDx=0;entryDy=0;" parent="1" source="xeIMTpFjhwIsgQmxVqon-69" target="xeIMTpFjhwIsgQmxVqon-72" edge="1">
          <mxGeometry relative="1" as="geometry" />
        </mxCell>
        <mxCell id="xeIMTpFjhwIsgQmxVqon-79" style="edgeStyle=orthogonalEdgeStyle;rounded=0;orthogonalLoop=1;jettySize=auto;html=1;entryX=0.5;entryY=0;entryDx=0;entryDy=0;" parent="1" source="xeIMTpFjhwIsgQmxVqon-72" target="xeIMTpFjhwIsgQmxVqon-75" edge="1">
          <mxGeometry relative="1" as="geometry" />
        </mxCell>
        <mxCell id="xeIMTpFjhwIsgQmxVqon-80" value="False" style="text;html=1;align=center;verticalAlign=middle;whiteSpace=wrap;rounded=0;" parent="1" vertex="1">
          <mxGeometry x="295" y="715" width="60" height="30" as="geometry" />
        </mxCell>
        <mxCell id="xeIMTpFjhwIsgQmxVqon-81" value="" style="group" parent="1" vertex="1" connectable="0">
          <mxGeometry x="355" y="730" width="130" height="140" as="geometry" />
        </mxCell>
        <mxCell id="xeIMTpFjhwIsgQmxVqon-131" style="edgeStyle=orthogonalEdgeStyle;rounded=0;orthogonalLoop=1;jettySize=auto;html=1;" parent="xeIMTpFjhwIsgQmxVqon-81" source="xeIMTpFjhwIsgQmxVqon-82" edge="1">
          <mxGeometry relative="1" as="geometry">
            <mxPoint x="-255" y="490" as="targetPoint" />
            <Array as="points">
              <mxPoint x="175" y="65" />
              <mxPoint x="175" y="490" />
            </Array>
          </mxGeometry>
        </mxCell>
        <mxCell id="xeIMTpFjhwIsgQmxVqon-82" value="" style="rhombus;whiteSpace=wrap;html=1;" parent="xeIMTpFjhwIsgQmxVqon-81" vertex="1">
          <mxGeometry width="130" height="130" as="geometry" />
        </mxCell>
        <mxCell id="xeIMTpFjhwIsgQmxVqon-83" value="j == 3" style="text;html=1;align=center;verticalAlign=middle;whiteSpace=wrap;rounded=0;" parent="xeIMTpFjhwIsgQmxVqon-81" vertex="1">
          <mxGeometry x="20" y="25" width="90" height="80" as="geometry" />
        </mxCell>
        <mxCell id="xeIMTpFjhwIsgQmxVqon-84" value="True" style="text;html=1;align=center;verticalAlign=middle;whiteSpace=wrap;rounded=0;" parent="xeIMTpFjhwIsgQmxVqon-81" vertex="1">
          <mxGeometry y="110" width="60" height="30" as="geometry" />
        </mxCell>
        <mxCell id="xeIMTpFjhwIsgQmxVqon-85" value="" style="group" parent="1" vertex="1" connectable="0">
          <mxGeometry x="360" y="890" width="120" height="60" as="geometry" />
        </mxCell>
        <mxCell id="xeIMTpFjhwIsgQmxVqon-86" value="" style="rounded=0;whiteSpace=wrap;html=1;" parent="xeIMTpFjhwIsgQmxVqon-85" vertex="1">
          <mxGeometry width="120" height="60" as="geometry" />
        </mxCell>
        <mxCell id="xeIMTpFjhwIsgQmxVqon-87" value="r = i" style="text;html=1;align=center;verticalAlign=middle;whiteSpace=wrap;rounded=0;" parent="xeIMTpFjhwIsgQmxVqon-85" vertex="1">
          <mxGeometry x="10" y="10" width="100" height="40" as="geometry" />
        </mxCell>
        <mxCell id="xeIMTpFjhwIsgQmxVqon-88" value="" style="group" parent="1" vertex="1" connectable="0">
          <mxGeometry x="360" y="990" width="120" height="60" as="geometry" />
        </mxCell>
        <mxCell id="xeIMTpFjhwIsgQmxVqon-89" value="" style="rounded=0;whiteSpace=wrap;html=1;" parent="xeIMTpFjhwIsgQmxVqon-88" vertex="1">
          <mxGeometry width="120" height="60" as="geometry" />
        </mxCell>
        <mxCell id="xeIMTpFjhwIsgQmxVqon-90" value="c&amp;nbsp;&amp;nbsp;= i * 5/4" style="text;html=1;align=center;verticalAlign=middle;whiteSpace=wrap;rounded=0;" parent="xeIMTpFjhwIsgQmxVqon-88" vertex="1">
          <mxGeometry x="10" y="10" width="100" height="40" as="geometry" />
        </mxCell>
        <mxCell id="xeIMTpFjhwIsgQmxVqon-91" value="" style="group" parent="1" vertex="1" connectable="0">
          <mxGeometry x="360" y="1090" width="120" height="60" as="geometry" />
        </mxCell>
        <mxCell id="xeIMTpFjhwIsgQmxVqon-112" style="edgeStyle=orthogonalEdgeStyle;rounded=0;orthogonalLoop=1;jettySize=auto;html=1;" parent="xeIMTpFjhwIsgQmxVqon-91" source="xeIMTpFjhwIsgQmxVqon-92" edge="1">
          <mxGeometry relative="1" as="geometry">
            <mxPoint x="-265" y="110" as="targetPoint" />
            <Array as="points">
              <mxPoint x="60" y="80" />
              <mxPoint x="61" y="120" />
            </Array>
          </mxGeometry>
        </mxCell>
        <mxCell id="xeIMTpFjhwIsgQmxVqon-92" value="" style="rounded=0;whiteSpace=wrap;html=1;" parent="xeIMTpFjhwIsgQmxVqon-91" vertex="1">
          <mxGeometry width="120" height="60" as="geometry" />
        </mxCell>
        <mxCell id="xeIMTpFjhwIsgQmxVqon-93" value="f&amp;nbsp;&amp;nbsp;= (i * 9/4) + 32" style="text;html=1;align=center;verticalAlign=middle;whiteSpace=wrap;rounded=0;" parent="xeIMTpFjhwIsgQmxVqon-91" vertex="1">
          <mxGeometry x="10" y="10" width="100" height="40" as="geometry" />
        </mxCell>
        <mxCell id="xeIMTpFjhwIsgQmxVqon-94" style="edgeStyle=orthogonalEdgeStyle;rounded=0;orthogonalLoop=1;jettySize=auto;html=1;entryX=0.5;entryY=0;entryDx=0;entryDy=0;" parent="1" source="xeIMTpFjhwIsgQmxVqon-82" target="xeIMTpFjhwIsgQmxVqon-86" edge="1">
          <mxGeometry relative="1" as="geometry" />
        </mxCell>
        <mxCell id="xeIMTpFjhwIsgQmxVqon-95" style="edgeStyle=orthogonalEdgeStyle;rounded=0;orthogonalLoop=1;jettySize=auto;html=1;entryX=0.5;entryY=0;entryDx=0;entryDy=0;" parent="1" source="xeIMTpFjhwIsgQmxVqon-86" target="xeIMTpFjhwIsgQmxVqon-89" edge="1">
          <mxGeometry relative="1" as="geometry" />
        </mxCell>
        <mxCell id="xeIMTpFjhwIsgQmxVqon-96" style="edgeStyle=orthogonalEdgeStyle;rounded=0;orthogonalLoop=1;jettySize=auto;html=1;entryX=0.5;entryY=0;entryDx=0;entryDy=0;" parent="1" source="xeIMTpFjhwIsgQmxVqon-89" target="xeIMTpFjhwIsgQmxVqon-92" edge="1">
          <mxGeometry relative="1" as="geometry" />
        </mxCell>
        <mxCell id="xeIMTpFjhwIsgQmxVqon-97" value="False" style="text;html=1;align=center;verticalAlign=middle;whiteSpace=wrap;rounded=0;" parent="1" vertex="1">
          <mxGeometry x="465" y="805" width="60" height="30" as="geometry" />
        </mxCell>
        <mxCell id="xeIMTpFjhwIsgQmxVqon-98" style="edgeStyle=orthogonalEdgeStyle;rounded=0;orthogonalLoop=1;jettySize=auto;html=1;entryX=0.5;entryY=0;entryDx=0;entryDy=0;" parent="1" source="xeIMTpFjhwIsgQmxVqon-31" target="xeIMTpFjhwIsgQmxVqon-65" edge="1">
          <mxGeometry relative="1" as="geometry" />
        </mxCell>
        <mxCell id="xeIMTpFjhwIsgQmxVqon-100" style="edgeStyle=orthogonalEdgeStyle;rounded=0;orthogonalLoop=1;jettySize=auto;html=1;entryX=0.5;entryY=0;entryDx=0;entryDy=0;" parent="1" source="xeIMTpFjhwIsgQmxVqon-65" target="xeIMTpFjhwIsgQmxVqon-82" edge="1">
          <mxGeometry relative="1" as="geometry" />
        </mxCell>
        <mxCell id="xeIMTpFjhwIsgQmxVqon-105" value="" style="group" parent="1" vertex="1" connectable="0">
          <mxGeometry x="35" y="1240" width="120" height="60" as="geometry" />
        </mxCell>
        <mxCell id="xeIMTpFjhwIsgQmxVqon-106" value="" style="rounded=0;whiteSpace=wrap;html=1;" parent="xeIMTpFjhwIsgQmxVqon-105" vertex="1">
          <mxGeometry width="120" height="60" as="geometry" />
        </mxCell>
        <mxCell id="xeIMTpFjhwIsgQmxVqon-107" value="Mengeluarkan hasil c" style="text;html=1;align=center;verticalAlign=middle;whiteSpace=wrap;rounded=0;" parent="xeIMTpFjhwIsgQmxVqon-105" vertex="1">
          <mxGeometry x="10" y="10" width="100" height="40" as="geometry" />
        </mxCell>
        <mxCell id="xeIMTpFjhwIsgQmxVqon-109" style="edgeStyle=orthogonalEdgeStyle;rounded=0;orthogonalLoop=1;jettySize=auto;html=1;entryX=0.5;entryY=0;entryDx=0;entryDy=0;" parent="1" source="xeIMTpFjhwIsgQmxVqon-53" target="xeIMTpFjhwIsgQmxVqon-106" edge="1">
          <mxGeometry relative="1" as="geometry" />
        </mxCell>
        <mxCell id="xeIMTpFjhwIsgQmxVqon-114" value="" style="group" parent="1" vertex="1" connectable="0">
          <mxGeometry x="35" y="1340" width="120" height="60" as="geometry" />
        </mxCell>
        <mxCell id="xeIMTpFjhwIsgQmxVqon-115" value="" style="rounded=0;whiteSpace=wrap;html=1;" parent="xeIMTpFjhwIsgQmxVqon-114" vertex="1">
          <mxGeometry width="120" height="60" as="geometry" />
        </mxCell>
        <mxCell id="xeIMTpFjhwIsgQmxVqon-116" value="Mengeluarkan hasil f" style="text;html=1;align=center;verticalAlign=middle;whiteSpace=wrap;rounded=0;" parent="xeIMTpFjhwIsgQmxVqon-114" vertex="1">
          <mxGeometry x="10" y="10" width="100" height="40" as="geometry" />
        </mxCell>
        <mxCell id="xeIMTpFjhwIsgQmxVqon-120" value="" style="group" parent="1" vertex="1" connectable="0">
          <mxGeometry x="35" y="1460" width="120" height="60" as="geometry" />
        </mxCell>
        <mxCell id="xeIMTpFjhwIsgQmxVqon-129" style="edgeStyle=orthogonalEdgeStyle;rounded=0;orthogonalLoop=1;jettySize=auto;html=1;" parent="xeIMTpFjhwIsgQmxVqon-120" source="xeIMTpFjhwIsgQmxVqon-121" edge="1">
          <mxGeometry relative="1" as="geometry">
            <mxPoint x="60" y="100" as="targetPoint" />
          </mxGeometry>
        </mxCell>
        <mxCell id="xeIMTpFjhwIsgQmxVqon-121" value="" style="rounded=0;whiteSpace=wrap;html=1;" parent="xeIMTpFjhwIsgQmxVqon-120" vertex="1">
          <mxGeometry width="120" height="60" as="geometry" />
        </mxCell>
        <mxCell id="xeIMTpFjhwIsgQmxVqon-122" value="Mengeluarkan hasil r" style="text;html=1;align=center;verticalAlign=middle;whiteSpace=wrap;rounded=0;" parent="xeIMTpFjhwIsgQmxVqon-120" vertex="1">
          <mxGeometry x="10" y="10" width="100" height="40" as="geometry" />
        </mxCell>
        <mxCell id="xeIMTpFjhwIsgQmxVqon-123" style="edgeStyle=orthogonalEdgeStyle;rounded=0;orthogonalLoop=1;jettySize=auto;html=1;entryX=0.5;entryY=0;entryDx=0;entryDy=0;" parent="1" source="xeIMTpFjhwIsgQmxVqon-106" target="xeIMTpFjhwIsgQmxVqon-115" edge="1">
          <mxGeometry relative="1" as="geometry" />
        </mxCell>
        <mxCell id="xeIMTpFjhwIsgQmxVqon-124" style="edgeStyle=orthogonalEdgeStyle;rounded=0;orthogonalLoop=1;jettySize=auto;html=1;entryX=0.5;entryY=0;entryDx=0;entryDy=0;" parent="1" source="xeIMTpFjhwIsgQmxVqon-115" target="xeIMTpFjhwIsgQmxVqon-121" edge="1">
          <mxGeometry relative="1" as="geometry" />
        </mxCell>
        <mxCell id="xeIMTpFjhwIsgQmxVqon-125" value="" style="group" parent="1" vertex="1" connectable="0">
          <mxGeometry x="35" y="1560" width="120" height="80" as="geometry" />
        </mxCell>
        <mxCell id="xeIMTpFjhwIsgQmxVqon-126" value="" style="ellipse;whiteSpace=wrap;html=1;" parent="xeIMTpFjhwIsgQmxVqon-125" vertex="1">
          <mxGeometry width="120" height="80" as="geometry" />
        </mxCell>
        <mxCell id="xeIMTpFjhwIsgQmxVqon-127" value="Selesai" style="text;html=1;align=center;verticalAlign=middle;whiteSpace=wrap;rounded=0;" parent="xeIMTpFjhwIsgQmxVqon-125" vertex="1">
          <mxGeometry x="10" y="10" width="100" height="60" as="geometry" />
        </mxCell>
      </root>
    </mxGraphModel>
  </diagram>
</mxfile>
